<svg width="11" height="12" viewBox="0 0 11 12" fill="none" xmlns="http://www.w3.org/2000/svg">
<path opacity="0.5" d="M7.59375 6L10.7188 9.125C10.9062 9.3125 11 9.5625 11 9.8125C11 10.0938 10.9062 10.3438 10.7188 10.5312L10.0312 11.2188C9.8125 11.4062 9.5625 11.5 9.3125 11.5C9.03125 11.5 8.8125 11.4062 8.625 11.2188L5.5 8.09375L2.375 11.2188C2.1875 11.4062 1.9375 11.5 1.6875 11.5C1.40625 11.5 1.15625 11.4062 0.96875 11.2188L0.28125 10.5312C0.09375 10.3438 0 10.0938 0 9.8125C0 9.5625 0.09375 9.3125 0.28125 9.125L3.40625 6L0.28125 2.875C0.09375 2.6875 0 2.46875 0 2.1875C0 1.9375 0.09375 1.6875 0.28125 1.46875L0.96875 0.78125C1.15625 0.59375 1.40625 0.5 1.6875 0.5C1.9375 0.5 2.1875 0.59375 2.375 0.78125L5.5 3.90625L8.625 0.78125C8.8125 0.59375 9.03125 0.5 9.3125 0.5C9.5625 0.5 9.8125 0.59375 10.0312 0.78125L10.7188 1.46875C10.9062 1.6875 11 1.9375 11 2.1875C11 2.46875 10.9062 2.6875 10.7188 2.875L7.59375 6Z" fill="#999999"/>
</svg>
