<svg width="20" height="20" viewBox="0 0 20 20" fill="none" xmlns="http://www.w3.org/2000/svg">
    <defs>
        <linearGradient id="paint0_linear_33_214" x1="2.95211" y1="1.02321e-05" x2="19.5246" y2="0.569404" gradientUnits="userSpaceOnUse">
            <stop stop-color="#F8A170" />
            <stop offset="1" stop-color="#FFCD61" />
        </linearGradient>
    </defs>
    <path d="M9.6875 0C11.4062 0 13.0469 0.46875 14.5312 1.32812C16.0156 2.1875 17.1875 3.35938 18.0469 4.84375C18.9062 6.32812 19.375 7.96875 19.375 9.6875C19.375 11.4453 18.9062 13.0469 18.0469 14.5312C17.1875 16.0156 16.0156 17.2266 14.5312 18.0859C13.0469 18.9453 11.4062 19.375 9.6875 19.375C7.92969 19.375 6.32812 18.9453 4.84375 18.0859C3.35938 17.2266 2.14844 16.0156 1.28906 14.5312C0.429688 13.0469 0 11.4453 0 9.6875C0 7.96875 0.429688 6.32812 1.28906 4.84375C2.14844 3.35938 3.35938 2.1875 4.84375 1.32812C6.32812 0.46875 7.92969 0 9.6875 0ZM9.6875 4.29688C9.21875 4.29688 8.82812 4.49219 8.51562 4.80469C8.20312 5.11719 8.04688 5.50781 8.04688 5.9375C8.04688 6.40625 8.20312 6.79688 8.51562 7.10938C8.82812 7.42188 9.21875 7.57812 9.6875 7.57812C10.1172 7.57812 10.5078 7.42188 10.8203 7.10938C11.1328 6.79688 11.3281 6.40625 11.3281 5.9375C11.3281 5.50781 11.1328 5.11719 10.8203 4.80469C10.5078 4.49219 10.1172 4.29688 9.6875 4.29688ZM11.875 14.2188V13.2812C11.875 13.1641 11.7969 13.0469 11.7188 12.9688C11.6406 12.8906 11.5234 12.8125 11.4062 12.8125H10.9375V8.90625C10.9375 8.78906 10.8594 8.67188 10.7812 8.59375C10.7031 8.51562 10.5859 8.4375 10.4688 8.4375H7.96875C7.8125 8.4375 7.69531 8.51562 7.61719 8.59375C7.53906 8.67188 7.5 8.78906 7.5 8.90625V9.84375C7.5 10 7.53906 10.1172 7.61719 10.1953C7.69531 10.2734 7.8125 10.3125 7.96875 10.3125H8.4375V12.8125H7.96875C7.8125 12.8125 7.69531 12.8906 7.61719 12.9688C7.53906 13.0469 7.5 13.1641 7.5 13.2812V14.2188C7.5 14.375 7.53906 14.4922 7.61719 14.5703C7.69531 14.6484 7.8125 14.6875 7.96875 14.6875H11.4062C11.5234 14.6875 11.6406 14.6484 11.7188 14.5703C11.7969 14.4922 11.875 14.375 11.875 14.2188Z" fill="url(#paint0_linear_33_214)" />

</svg>