<svg width="29" height="27" viewBox="0 0 29 27" fill="none" xmlns="http://www.w3.org/2000/svg">
<g filter="url(#filter0_d_33_306)">
<path d="M24.0977 8.125C24.2617 8.125 24.3906 8.18359 24.4844 8.30078C24.6016 8.39453 24.6602 8.52344 24.6602 8.6875V13.1875C24.6602 13.3516 24.6016 13.4922 24.4844 13.6094C24.3906 13.7031 24.2617 13.75 24.0977 13.75H22.375C22.0703 14.1719 21.707 14.5352 21.2852 14.8398V17.6875C21.2852 17.8516 21.2266 17.9805 21.1094 18.0742C21.0156 18.1914 20.8867 18.25 20.7227 18.25H18.4727C18.3086 18.25 18.168 18.1914 18.0508 18.0742C17.957 17.9805 17.9102 17.8516 17.9102 17.6875V16H13.4102V17.6875C13.4102 17.8516 13.3516 17.9805 13.2344 18.0742C13.1406 18.1914 13.0117 18.25 12.8477 18.25H10.5977C10.4336 18.25 10.293 18.1914 10.1758 18.0742C10.082 17.9805 10.0352 17.8516 10.0352 17.6875V14.8398C9.58984 14.5117 9.19141 14.125 8.83984 13.6797C8.51172 13.2109 8.25391 12.6953 8.06641 12.1328C7.87891 11.5703 7.78516 10.9844 7.78516 10.375H6.37891C5.79297 10.375 5.30078 10.1523 4.90234 9.70703C4.50391 9.26172 4.33984 8.74609 4.41016 8.16016C4.45703 7.83203 4.57422 7.53906 4.76172 7.28125C4.97266 7 5.21875 6.78906 5.5 6.64844C5.80469 6.50781 6.12109 6.4375 6.44922 6.4375C6.58984 6.4375 6.66016 6.50781 6.66016 6.64844V7.35156C6.66016 7.49219 6.58984 7.5625 6.44922 7.5625H6.41406C6.27344 7.5625 6.14453 7.59766 6.02734 7.66797C5.91016 7.71484 5.80469 7.79688 5.71094 7.91406C5.64062 8.00781 5.58203 8.11328 5.53516 8.23047C5.48828 8.51172 5.54688 8.75781 5.71094 8.96875C5.89844 9.15625 6.12109 9.25 6.37891 9.25H7.89062C8.14844 7.96094 8.79297 6.89453 9.82422 6.05078C10.8555 5.18359 12.0508 4.75 13.4102 4.75H17.9102C18.0742 4.75 18.3438 4.77344 18.7188 4.82031C19.3984 4.02344 20.2539 3.625 21.2852 3.625H22.4102L21.7422 6.29688C22.3047 6.8125 22.7383 7.42188 23.043 8.125H24.0977ZM19.1758 10.2344C19.293 10.3281 19.4336 10.375 19.5977 10.375C19.7617 10.375 19.8906 10.3281 19.9844 10.2344C20.1016 10.1172 20.1602 9.97656 20.1602 9.8125C20.1602 9.64844 20.1016 9.51953 19.9844 9.42578C19.8906 9.30859 19.7617 9.25 19.5977 9.25C19.4336 9.25 19.293 9.30859 19.1758 9.42578C19.082 9.51953 19.0352 9.64844 19.0352 9.8125C19.0352 9.97656 19.082 10.1172 19.1758 10.2344ZM13.4102 3.625C12.8711 3.625 12.3203 3.69531 11.7578 3.83594C11.7578 3.8125 11.7461 3.77734 11.7227 3.73047C11.7227 3.68359 11.7227 3.64844 11.7227 3.625C11.7227 2.6875 12.0508 1.89063 12.707 1.23438C13.3633 0.578125 14.1602 0.25 15.0977 0.25C16.0352 0.25 16.832 0.578125 17.4883 1.23438C18.1445 1.89063 18.4727 2.6875 18.4727 3.625C18.4727 3.64844 18.4727 3.66016 18.4727 3.66016C18.2148 3.63672 18.0273 3.625 17.9102 3.625H13.4102Z" fill="url(#paint0_linear_33_306)"/>
</g>
<defs>
<filter id="filter0_d_33_306" x="0.304688" y="0.25" width="28.3555" height="26" filterUnits="userSpaceOnUse" color-interpolation-filters="sRGB">
<feFlood flood-opacity="0" result="BackgroundImageFix"/>
<feColorMatrix in="SourceAlpha" type="matrix" values="0 0 0 0 0 0 0 0 0 0 0 0 0 0 0 0 0 0 127 0" result="hardAlpha"/>
<feOffset dy="4"/>
<feGaussianBlur stdDeviation="2"/>
<feComposite in2="hardAlpha" operator="out"/>
<feColorMatrix type="matrix" values="0 0 0 0 0 0 0 0 0 0 0 0 0 0 0 0 0 0 0.25 0"/>
<feBlend mode="normal" in2="BackgroundImageFix" result="effect1_dropShadow_33_306"/>
<feBlend mode="normal" in="SourceGraphic" in2="effect1_dropShadow_33_306" result="shape"/>
</filter>
<linearGradient id="paint0_linear_33_306" x1="7.1997" y1="1.00001" x2="25.151" y2="1.7619" gradientUnits="userSpaceOnUse">
<stop stop-color="#F8A170"/>
<stop offset="1" stop-color="#FFCD61"/>
</linearGradient>
</defs>
</svg>
